<svg width="20" height="20" viewBox="0 0 20 20" fill="none" xmlns="http://www.w3.org/2000/svg">
<path d="M9.9974 5.10417C10.8028 5.10417 11.4557 4.45125 11.4557 3.64583C11.4557 2.84042 10.8028 2.1875 9.9974 2.1875C9.19198 2.1875 8.53906 2.84042 8.53906 3.64583C8.53906 4.45125 9.19198 5.10417 9.9974 5.10417Z" fill="white"/>
<path d="M17.4974 7.60417C18.3028 7.60417 18.9557 6.95125 18.9557 6.14583C18.9557 5.34042 18.3028 4.6875 17.4974 4.6875C16.692 4.6875 16.0391 5.34042 16.0391 6.14583C16.0391 6.95125 16.692 7.60417 17.4974 7.60417Z" fill="white"/>
<path d="M2.4974 7.60417C3.30281 7.60417 3.95573 6.95125 3.95573 6.14583C3.95573 5.34042 3.30281 4.6875 2.4974 4.6875C1.69198 4.6875 1.03906 5.34042 1.03906 6.14583C1.03906 6.95125 1.69198 7.60417 2.4974 7.60417Z" fill="white"/>
<path fill-rule="evenodd" clip-rule="evenodd" d="M17.6929 7.10165C17.7187 6.9726 17.7031 6.83869 17.6483 6.71902C17.5936 6.59934 17.5024 6.50001 17.3879 6.43517C17.2734 6.37034 17.1413 6.34331 17.0105 6.35794C16.8797 6.37257 16.7569 6.42811 16.6595 6.51665L14.8045 8.20331C14.578 8.40922 14.3044 8.55652 14.0078 8.63234C13.7112 8.70816 13.4005 8.71019 13.1029 8.63826C12.8054 8.56633 12.5299 8.42263 12.3007 8.2197C12.0714 8.01678 11.8954 7.7608 11.7879 7.47415L10.582 4.25998C10.5373 4.14099 10.4573 4.03847 10.3528 3.96611C10.2483 3.89375 10.1242 3.85498 9.99704 3.85498C9.86991 3.85498 9.7458 3.89375 9.64128 3.96611C9.53676 4.03847 9.45679 4.14099 9.41204 4.25998L8.2062 7.47415C8.09902 7.76108 7.92312 8.01736 7.69391 8.22053C7.46469 8.4237 7.18916 8.56757 6.89143 8.63953C6.59371 8.7115 6.28288 8.70936 5.98618 8.63331C5.68947 8.55726 5.41594 8.40962 5.18954 8.20331L3.33454 6.51665C3.23717 6.42811 3.11433 6.37257 2.98354 6.35794C2.85275 6.34331 2.72068 6.37034 2.60615 6.43517C2.49162 6.50001 2.40049 6.59934 2.34573 6.71902C2.29097 6.83869 2.27539 6.9726 2.3012 7.10165L3.69954 14.095C3.80339 14.6146 4.08409 15.0821 4.49387 15.4181C4.90364 15.754 5.41716 15.9375 5.94704 15.9375H14.047C14.5769 15.9375 15.0904 15.754 15.5002 15.4181C15.91 15.0821 16.1907 14.6146 16.2945 14.095L17.6929 7.10165ZM14.997 17.1875H4.99704C4.83128 17.1875 4.6723 17.2533 4.55509 17.3705C4.43788 17.4877 4.37204 17.6467 4.37204 17.8125C4.37204 17.9782 4.43788 18.1372 4.55509 18.2544C4.6723 18.3716 4.83128 18.4375 4.99704 18.4375H14.997C15.1628 18.4375 15.3218 18.3716 15.439 18.2544C15.5562 18.1372 15.622 17.9782 15.622 17.8125C15.622 17.6467 15.5562 17.4877 15.439 17.3705C15.3218 17.2533 15.1628 17.1875 14.997 17.1875Z" fill="white"/>
</svg>
