<svg width="20" height="20" viewBox="0 0 20 20" fill="none" xmlns="http://www.w3.org/2000/svg">
<path d="M7.2474 6.41667L9.16406 4.5V12.5C9.16406 13 9.4974 13.3333 9.9974 13.3333C10.4974 13.3333 10.8307 13 10.8307 12.5V4.5L12.7474 6.41667C13.0807 6.75 13.5807 6.75 13.9141 6.41667C14.2474 6.08333 14.2474 5.58333 13.9141 5.25L10.5807 1.91667C10.4974 1.83333 10.4141 1.75 10.3307 1.75C10.1641 1.66667 9.91406 1.66667 9.66406 1.75C9.58073 1.75 9.4974 1.83333 9.41406 1.91667L6.08073 5.25C5.7474 5.58333 5.7474 6.08333 6.08073 6.41667C6.41406 6.75 6.91406 6.75 7.2474 6.41667ZM17.4974 11.6667C16.9974 11.6667 16.6641 12 16.6641 12.5V15.8333C16.6641 16.3333 16.3307 16.6667 15.8307 16.6667H4.16406C3.66406 16.6667 3.33073 16.3333 3.33073 15.8333V12.5C3.33073 12 2.9974 11.6667 2.4974 11.6667C1.9974 11.6667 1.66406 12 1.66406 12.5V15.8333C1.66406 17.25 2.7474 18.3333 4.16406 18.3333H15.8307C17.2474 18.3333 18.3307 17.25 18.3307 15.8333V12.5C18.3307 12 17.9974 11.6667 17.4974 11.6667Z" fill="black"/>
</svg>
