<svg width="24" height="24" viewBox="0 0 24 24" fill="none" xmlns="http://www.w3.org/2000/svg">
<path fill-rule="evenodd" clip-rule="evenodd" d="M9.0847 15.1219C10.0974 15.8988 10.7502 17.1212 10.7502 18.4961C10.7502 20.8433 8.84745 22.7461 6.50024 22.7461C4.15303 22.7461 2.25024 20.8433 2.25024 18.4961C2.25024 16.1489 4.15303 14.2461 6.50024 14.2461C6.92828 14.2461 7.34155 14.3094 7.73118 14.4271L11.0457 9.99779L5.39954 2.44509C5.15153 2.11333 5.21942 1.64333 5.55118 1.39532C5.88294 1.14731 6.35293 1.2152 6.60095 1.54696L11.9826 8.74581L17.3698 1.54667C17.6179 1.21503 18.088 1.14737 18.4196 1.39554C18.7513 1.64371 18.8189 2.11374 18.5707 2.44537L12.9188 9.99824L16.2371 14.437C16.6361 14.3129 17.0604 14.2461 17.5002 14.2461C19.8475 14.2461 21.7502 16.1489 21.7502 18.4961C21.7502 20.8433 19.8475 22.7461 17.5002 22.7461C15.153 22.7461 13.2502 20.8433 13.2502 18.4961C13.2502 17.1325 13.8924 15.919 14.8908 15.1413L11.982 11.2502L9.0847 15.1219ZM6.50024 21.2461C4.98146 21.2461 3.75024 20.0149 3.75024 18.4961C3.75024 16.9773 4.98146 15.7461 6.50024 15.7461C6.86387 15.7461 7.21102 15.8167 7.52873 15.9449L7.53091 15.9465C7.616 16.0102 7.7102 16.0531 7.80742 16.076C8.66666 16.5411 9.25024 17.4505 9.25024 18.4961C9.25024 20.0149 8.01903 21.2461 6.50024 21.2461ZM17.5002 21.2461C15.9815 21.2461 14.7502 20.0149 14.7502 18.4961C14.7502 17.4274 15.3598 16.5011 16.2502 16.046C16.2877 16.0315 16.3243 16.0139 16.3598 15.993C16.7072 15.8344 17.0934 15.7461 17.5002 15.7461C19.019 15.7461 20.2502 16.9773 20.2502 18.4961C20.2502 20.0149 19.019 21.2461 17.5002 21.2461Z" fill="white"/>
</svg>
