<svg width="24" height="24" viewBox="0 0 24 24" fill="none" xmlns="http://www.w3.org/2000/svg">
<g clip-path="url(#clip0_23_20464)">
<path d="M23.1964 11.9465H10.2252C9.78941 10.2343 8.04815 9.19956 6.33593 9.63532C5.77851 9.7772 5.26965 10.0667 4.86293 10.4735C4.45621 10.8802 4.16667 11.389 4.0248 11.9465H2.30359C1.85977 11.9465 1.5 12.3062 1.5 12.75C1.5 13.1939 1.85977 13.5536 2.30359 13.5536H4.02484C4.46061 15.2657 6.20188 16.3005 7.9141 15.8647C8.47151 15.7228 8.98037 15.4333 9.38709 15.0266C9.79381 14.6199 10.0834 14.111 10.2252 13.5536H23.1964C23.6402 13.5536 24 13.1938 24 12.75C24 12.3062 23.6402 11.9465 23.1964 11.9465ZM23.1964 3.91073H20.6716C20.2359 2.19856 18.4946 1.16383 16.7824 1.5996C16.2249 1.74147 15.7161 2.03101 15.3094 2.43773C14.9026 2.84446 14.6131 3.35331 14.4712 3.91073H2.30359C1.85977 3.91073 1.5 4.2705 1.5 4.71431C1.5 5.15813 1.85977 5.5179 2.30359 5.5179H14.4712C14.907 7.23007 16.6483 8.2648 18.3605 7.82903C18.9179 7.68716 19.4268 7.39762 19.8335 6.9909C20.2402 6.58417 20.5297 6.07532 20.6716 5.5179H23.1964C23.6402 5.5179 24 5.15813 24 4.71431C24 4.2705 23.6402 3.91073 23.1964 3.91073ZM23.1964 19.9822H19.0644C18.6287 18.27 16.8874 17.2353 15.1752 17.671C14.6178 17.8129 14.1089 18.1025 13.7022 18.5092C13.2955 18.9159 13.0059 19.4248 12.8641 19.9822H2.30359C1.85977 19.9822 1.5 20.3419 1.5 20.7857C1.5 21.2295 1.85977 21.5893 2.30359 21.5893H12.8641C13.2999 23.3015 15.0411 24.3362 16.7534 23.9004C17.3108 23.7586 17.8196 23.469 18.2264 23.0623C18.6331 22.6556 18.9226 22.1467 19.0645 21.5893H23.1964C23.6402 21.5893 24 21.2295 24 20.7857C24 20.3419 23.6402 19.9822 23.1964 19.9822Z" fill="white"/>
</g>
<defs>
<clipPath id="clip0_23_20464">
<rect width="24" height="24" fill="white"/>
</clipPath>
</defs>
</svg>
