<svg width="24" height="24" viewBox="0 0 24 24" fill="none" xmlns="http://www.w3.org/2000/svg">
<path d="M12.5031 6.00024C12.6357 6.00024 12.7629 5.94757 12.8567 5.8538C12.9504 5.76003 13.0031 5.63285 13.0031 5.50024V4.50024C13.0031 4.36764 12.9504 4.24046 12.8567 4.14669C12.7629 4.05292 12.6357 4.00024 12.5031 4.00024C12.3705 4.00024 12.2433 4.05292 12.1496 4.14669C12.0558 4.24046 12.0031 4.36764 12.0031 4.50024V5.50024C12.0031 5.63285 12.0558 5.76003 12.1496 5.8538C12.2433 5.94757 12.3705 6.00024 12.5031 6.00024ZM12.5031 9.00024C12.6357 9.00024 12.7629 8.94757 12.8567 8.8538C12.9504 8.76003 13.0031 8.63285 13.0031 8.50024V7.50024C13.0031 7.36764 12.9504 7.24046 12.8567 7.14669C12.7629 7.05292 12.6357 7.00024 12.5031 7.00024C12.3705 7.00024 12.2433 7.05292 12.1496 7.14669C12.0558 7.24046 12.0031 7.36764 12.0031 7.50024V8.50024C12.0031 8.63285 12.0558 8.76003 12.1496 8.8538C12.2433 8.94757 12.3705 9.00024 12.5031 9.00024ZM12.5031 12.0002C12.6357 12.0002 12.7629 11.9476 12.8567 11.8538C12.9504 11.76 13.0031 11.6329 13.0031 11.5002V10.5002C13.0031 10.3676 12.9504 10.2405 12.8567 10.1467C12.7629 10.0529 12.6357 10.0002 12.5031 10.0002C12.3705 10.0002 12.2433 10.0529 12.1496 10.1467C12.0558 10.2405 12.0031 10.3676 12.0031 10.5002V11.5002C12.0031 11.6329 12.0558 11.76 12.1496 11.8538C12.2433 11.9476 12.3705 12.0002 12.5031 12.0002ZM12.5031 15.0002C12.6357 15.0002 12.7629 14.9476 12.8567 14.8538C12.9504 14.76 13.0031 14.6329 13.0031 14.5002V13.5002C13.0031 13.3676 12.9504 13.2405 12.8567 13.1467C12.7629 13.0529 12.6357 13.0002 12.5031 13.0002C12.3705 13.0002 12.2433 13.0529 12.1496 13.1467C12.0558 13.2405 12.0031 13.3676 12.0031 13.5002V14.5002C12.0031 14.6329 12.0558 14.76 12.1496 14.8538C12.2433 14.9476 12.3705 15.0002 12.5031 15.0002ZM12.5031 18.0002C12.6357 18.0002 12.7629 17.9476 12.8567 17.8538C12.9504 17.76 13.0031 17.6329 13.0031 17.5002V16.5002C13.0031 16.3676 12.9504 16.2405 12.8567 16.1467C12.7629 16.0529 12.6357 16.0002 12.5031 16.0002C12.3705 16.0002 12.2433 16.0529 12.1496 16.1467C12.0558 16.2405 12.0031 16.3676 12.0031 16.5002V17.5002C12.0031 17.6329 12.0558 17.76 12.1496 17.8538C12.2433 17.9476 12.3705 18.0002 12.5031 18.0002ZM12.5031 21.0002C12.6357 21.0002 12.7629 20.9476 12.8567 20.8538C12.9504 20.76 13.0031 20.6329 13.0031 20.5002V19.5002C13.0031 19.3676 12.9504 19.2405 12.8567 19.1467C12.7629 19.0529 12.6357 19.0002 12.5031 19.0002C12.3705 19.0002 12.2433 19.0529 12.1496 19.1467C12.0558 19.2405 12.0031 19.3676 12.0031 19.5002V20.5002C12.0031 20.6329 12.0558 20.76 12.1496 20.8538C12.2433 20.9476 12.3705 21.0002 12.5031 21.0002ZM14.5081 21.0002H18.5081C19.1712 21.0002 19.807 20.7369 20.2759 20.268C20.7447 19.7992 21.0081 19.1633 21.0081 18.5002V6.50024C21.0081 5.8372 20.7447 5.20132 20.2759 4.73248C19.807 4.26364 19.1712 4.00024 18.5081 4.00024H14.5081C14.3755 4.00024 14.2483 4.05292 14.1546 4.14669C14.0608 4.24046 14.0081 4.36764 14.0081 4.50024V12.4582C14.0187 12.3382 14.0723 12.2259 14.1591 12.1422L16.1541 10.1422C16.248 10.0485 16.3753 9.99587 16.508 9.99597C16.6406 9.99606 16.7679 10.0489 16.8616 10.1427C16.9554 10.2366 17.008 10.3639 17.0079 10.4966C17.0078 10.6293 16.955 10.7565 16.8611 10.8502L15.7131 12.0002H18.5401C18.6017 12.0002 18.6626 12.0124 18.7194 12.036C18.7763 12.0595 18.8279 12.0941 18.8714 12.1377C18.9149 12.1812 18.9493 12.2329 18.9728 12.2898C18.9962 12.3467 19.0082 12.4077 19.0081 12.4692V12.5002C19.0081 12.6329 18.9554 12.76 18.8617 12.8538C18.7679 12.9476 18.6407 13.0002 18.5081 13.0002H15.7031L16.8531 14.1492C16.8995 14.1957 16.9363 14.2509 16.9614 14.3116C16.9865 14.3723 16.9994 14.4374 16.9994 14.5031C16.9993 14.5688 16.9864 14.6338 16.9612 14.6945C16.936 14.7552 16.8991 14.8103 16.8526 14.8567C16.8061 14.9032 16.7509 14.94 16.6902 14.9651C16.6295 14.9902 16.5645 15.0031 16.4988 15.003C16.4331 15.003 16.368 14.99 16.3073 14.9648C16.2467 14.9396 16.1915 14.9027 16.1451 14.8562L14.1531 12.8642C14.067 12.7816 14.014 12.6702 14.0041 12.5512V20.5002C14.0041 20.5662 14.0172 20.6316 14.0426 20.6925C14.0679 20.7534 14.1051 20.8087 14.152 20.8552C14.1988 20.9017 14.2544 20.9384 14.3155 20.9633C14.3767 20.9882 14.4421 21.0008 14.5081 21.0002ZM10.5031 21.0002H6.50311C5.84007 21.0002 5.20419 20.7369 4.73535 20.268C4.2665 19.7992 4.00311 19.1633 4.00311 18.5002V6.50024C4.00311 5.8372 4.2665 5.20132 4.73535 4.73248C5.20419 4.26364 5.84007 4.00024 6.50311 4.00024H10.5031C10.6357 4.00024 10.7629 4.05292 10.8567 4.14669C10.9504 4.24046 11.0031 4.36764 11.0031 4.50024V12.4582C10.9925 12.3382 10.9389 12.2259 10.8521 12.1422L8.85211 10.1422C8.75823 10.0484 8.63089 9.99561 8.49811 9.99561C8.36534 9.99561 8.238 10.0484 8.14411 10.1422C8.05023 10.2361 7.99748 10.3635 7.99748 10.4962C7.99748 10.629 8.05023 10.7564 8.14411 10.8502L9.29711 12.0002H6.47111C6.40939 12.0005 6.34833 12.0129 6.2914 12.0368C6.23448 12.0606 6.18281 12.0955 6.13936 12.1393C6.0959 12.1831 6.0615 12.2351 6.03812 12.2922C6.01475 12.3494 6.00285 12.4105 6.00311 12.4722V12.5002C6.00311 12.6329 6.05579 12.76 6.14956 12.8538C6.24333 12.9476 6.3705 13.0002 6.50311 13.0002H9.30311L8.15311 14.1492C8.06203 14.2435 8.01164 14.3698 8.01277 14.5009C8.01391 14.632 8.0665 14.7574 8.1592 14.8502C8.25191 14.9429 8.37731 14.9954 8.50841 14.9966C8.63951 14.9977 8.76581 14.9473 8.86011 14.8562L10.8531 12.8642C10.9385 12.7817 10.9916 12.6714 11.0031 12.5532V20.5002C11.0031 20.6329 10.9504 20.76 10.8567 20.8538C10.7629 20.9476 10.6357 21.0002 10.5031 21.0002Z" fill="white"/>
</svg>
