<svg width="24" height="24" viewBox="0 0 24 24" fill="none" xmlns="http://www.w3.org/2000/svg">
<g clip-path="url(#clip0_23_20476)">
<path fill-rule="evenodd" clip-rule="evenodd" d="M13.1026 18.1658C13.0771 18.3462 13.015 18.5181 12.921 18.6688C12.827 18.8195 12.7035 18.9451 12.5595 19.0364C12.3036 19.1982 11.9997 19.242 11.7145 19.1581C11.4293 19.0742 11.186 18.8695 11.0381 18.5889C10.9225 18.3699 10.8718 18.1168 10.8929 17.8647C10.914 17.6126 11.0058 17.3739 11.1558 17.1816C11.3057 16.9893 11.5063 16.8529 11.7299 16.7913C11.9535 16.7296 12.189 16.7457 12.4039 16.8373L19.1999 13.1772L19.387 13.5323L13.1026 18.1658ZM2.7998 17.9755C2.7998 16.1351 3.24826 14.4096 4.03111 12.9231L1.60559 11.3855C0.550402 13.3884 -0.00352666 15.6622 1.68951e-05 17.9761L2.7998 17.9755ZM4.25423 12.5212C5.04896 11.1634 6.12699 10.0331 7.39894 9.22412L5.99877 6.56114C4.30144 7.64063 2.86949 9.15845 1.82705 10.983L4.25423 12.5212ZM11.786 4.7998C9.89684 4.83362 8.04191 5.35912 6.37359 6.33315L7.77487 8.99856C9.01616 8.29298 10.3881 7.90885 11.7855 7.87561L11.786 4.7998ZM17.6264 6.33315C15.9582 5.35942 14.1035 4.83413 12.2146 4.80041V7.875C13.612 7.90843 14.9839 8.29277 16.2252 8.99856L17.6264 6.33315ZM22.173 10.9824C21.1305 9.15807 19.6985 7.64046 18.0013 6.56114L16.6005 9.22412C17.8727 10.033 18.9509 11.1633 19.7458 12.5212L22.173 10.9824ZM24.0006 17.9755C24.0006 15.5751 23.4154 13.3244 22.3944 11.3855L19.9695 12.9237C20.7783 14.4592 21.2029 16.2022 21.2002 17.9761L24.0006 17.9755Z" fill="white"/>
</g>
<defs>
<clipPath id="clip0_23_20476">
<rect width="24" height="24" fill="white"/>
</clipPath>
</defs>
</svg>
