<svg width="24" height="24" viewBox="0 0 24 24" fill="none" xmlns="http://www.w3.org/2000/svg">
<path d="M21.3717 2.57438C21.2996 2.51061 21.2149 2.46251 21.1232 2.43312C21.0315 2.40372 20.9347 2.39368 20.8389 2.40362L8.49605 3.77504C8.14862 3.81349 7.88573 4.10711 7.88577 4.45663V16.6768C7.26429 16.3049 6.55287 16.1102 5.82863 16.1138C3.9381 16.1139 2.40002 17.344 2.40002 18.8567C2.40002 20.3694 3.9381 21.5996 5.82859 21.5996C7.71907 21.5996 9.25715 20.3701 9.25715 18.8567V8.50241L20.2286 7.28046V15.3033C19.6069 14.9322 18.8955 14.7382 18.1715 14.7424C16.2809 14.7424 14.7429 15.9726 14.7429 17.4853C14.7429 18.998 16.281 20.2281 18.1715 20.2281C20.0619 20.2281 21.6 18.9986 21.6 17.4853V3.08525C21.6 2.89022 21.517 2.70444 21.3717 2.57438Z" fill="white"/>
</svg>
