<svg width="24" height="24" viewBox="0 0 24 24" fill="none" xmlns="http://www.w3.org/2000/svg">
<path d="M19.9969 2C19.7317 2 19.4773 2.10536 19.2898 2.29289C19.1023 2.48043 18.9969 2.73478 18.9969 3V4.88C17.5724 3.48231 15.7619 2.54331 13.7988 2.18404C11.8357 1.82477 9.81 2.0617 7.9828 2.86429C6.1556 3.66688 4.61066 4.99834 3.54713 6.68704C2.4836 8.37574 1.95023 10.3443 2.01577 12.3389C2.0813 14.3335 2.74275 16.2628 3.91484 17.878C5.08692 19.4933 6.71593 20.7204 8.59187 21.4014C10.4678 22.0823 12.5047 22.1857 14.44 21.6984C16.3753 21.211 18.1202 20.1552 19.4499 18.667C19.6239 18.469 19.7127 18.2103 19.6969 17.9471C19.6812 17.684 19.5621 17.4377 19.3658 17.2619C19.1694 17.086 18.9115 16.9949 18.6482 17.0082C18.3849 17.0215 18.1376 17.1382 17.9599 17.333C16.8691 18.5606 15.4275 19.4234 13.8301 19.8045C12.2328 20.1857 10.5569 20.0668 9.02934 19.4639C7.50181 18.861 6.19641 17.8034 5.2899 16.434C4.38339 15.0647 3.91955 13.4499 3.96117 11.8082C4.0028 10.1666 4.54788 8.57733 5.52262 7.25571C6.49737 5.93409 7.85468 4.94391 9.41081 4.41924C10.9669 3.89457 12.6467 3.86074 14.2227 4.32235C15.7987 4.78395 17.1948 5.71869 18.2219 7H14.9969C14.7317 7 14.4773 7.10536 14.2898 7.29289C14.1023 7.48043 13.9969 7.73478 13.9969 8C13.9969 8.26522 14.1023 8.51957 14.2898 8.70711C14.4773 8.89464 14.7317 9 14.9969 9H19.9969C20.2621 9 20.5165 8.89464 20.704 8.70711C20.8916 8.51957 20.9969 8.26522 20.9969 8V3C20.9969 2.73478 20.8916 2.48043 20.704 2.29289C20.5165 2.10536 20.2621 2 19.9969 2Z" fill="white"/>
</svg>
