<svg width="20" height="20" viewBox="0 0 20 20" fill="none" xmlns="http://www.w3.org/2000/svg">
<path d="M18.7494 13.1249C18.7437 14.0224 18.5242 14.9056 18.1089 15.7012C17.6937 16.4969 17.0947 17.1821 16.3618 17.7C15.6288 18.2179 14.7829 18.5536 13.8942 18.6792C13.0056 18.8049 12.0997 18.7168 11.2519 18.4224C12.0956 17.7275 12.7605 16.8405 13.1908 15.8357C13.6211 14.8309 13.8043 13.7376 13.725 12.6474C15.1332 11.7335 16.1604 10.3384 16.615 8.72241C17.28 9.24758 17.8174 9.91646 18.1871 10.6789C18.5567 11.4414 18.749 12.2776 18.7494 13.1249ZM12.4919 13.2749C12.4678 14.2207 12.2053 15.145 11.7289 15.9624C11.2525 16.7797 10.5775 17.4636 9.7665 17.9508C8.95548 18.4379 8.03464 18.7124 7.08929 18.749C6.14393 18.7856 5.20463 18.583 4.35839 18.1601C3.51215 17.7371 2.78633 17.1074 2.24817 16.3293C1.71002 15.5512 1.37692 14.6499 1.27974 13.7088C1.18256 12.7678 1.32444 11.8174 1.69223 10.9458C2.06003 10.0741 2.64185 9.3094 3.38379 8.72241C3.64702 9.64304 4.09877 10.4989 4.71038 11.2356C5.32198 11.9723 6.08008 12.5739 6.93654 13.002C7.793 13.4302 8.72912 13.6756 9.68548 13.7227C10.6418 13.7697 11.5975 13.6169 12.4919 13.2749Z" fill="white"/>
<path d="M4.375 6.875C4.375 5.76248 4.7049 4.67495 5.32298 3.74992C5.94107 2.82489 6.81957 2.10392 7.84741 1.67818C8.87524 1.25244 10.0062 1.14104 11.0974 1.35809C12.1885 1.57513 13.1908 2.11086 13.9775 2.89753C14.7641 3.6842 15.2999 4.68648 15.5169 5.77762C15.734 6.86876 15.6226 7.99976 15.1968 9.0276C14.7711 10.0554 14.0501 10.9339 13.1251 11.552C12.2001 12.1701 11.1125 12.5 10 12.5C8.50867 12.4983 7.07889 11.9052 6.02435 10.8507C4.96982 9.79612 4.37665 8.36634 4.375 6.875Z" fill="white"/>
</svg>
