<svg width="20" height="20" viewBox="0 0 20 20" fill="none" xmlns="http://www.w3.org/2000/svg">
<g clip-path="url(#clip0_23_18320)">
<path d="M17.5 5.00001C17.5 3.61925 18.6193 2.50001 20 2.50001C18.6193 2.50001 17.5 1.38072 17.5 0C17.5 1.38068 16.3807 2.50001 15 2.50001C16.3807 2.50001 17.5 3.61921 17.5 5.00001ZM18.125 7.49997C18.125 8.53549 17.2855 9.37497 16.25 9.37497C17.2856 9.37497 18.125 10.2144 18.125 11.25C18.125 10.2144 18.9645 9.37497 20 9.37497C18.9644 9.37501 18.125 8.53553 18.125 7.49997ZM8.75 7.49997C8.75 5.4289 10.4289 3.74999 12.5 3.74999C10.4289 3.74999 8.75 2.07107 8.75 0C8.75 2.07107 7.07108 3.74999 5.00001 3.74999C7.07108 3.74999 8.75 5.42894 8.75 7.49997ZM13.75 3.74999L0 17.5L2.50001 20L16.25 6.24999L13.75 3.74999ZM11.6162 7.75878L13.3838 5.99123L14.0088 6.61624L12.2412 8.38379L11.6162 7.75878Z" fill="white"/>
</g>
<defs>
<clipPath id="clip0_23_18320">
<rect width="20" height="20" fill="white"/>
</clipPath>
</defs>
</svg>
