<svg width="20" height="20" viewBox="0 0 20 20" fill="none" xmlns="http://www.w3.org/2000/svg">
<path d="M10.4193 5.00016C10.5298 5.00016 10.6358 4.95626 10.7139 4.87812C10.792 4.79998 10.8359 4.694 10.8359 4.5835V3.75016C10.8359 3.63966 10.792 3.53368 10.7139 3.45554C10.6358 3.37739 10.5298 3.3335 10.4193 3.3335C10.3088 3.3335 10.2028 3.37739 10.1246 3.45554C10.0465 3.53368 10.0026 3.63966 10.0026 3.75016V4.5835C10.0026 4.694 10.0465 4.79998 10.1246 4.87812C10.2028 4.95626 10.3088 5.00016 10.4193 5.00016ZM10.4193 7.50016C10.5298 7.50016 10.6358 7.45626 10.7139 7.37812C10.792 7.29998 10.8359 7.194 10.8359 7.0835V6.25016C10.8359 6.13966 10.792 6.03368 10.7139 5.95553C10.6358 5.87739 10.5298 5.8335 10.4193 5.8335C10.3088 5.8335 10.2028 5.87739 10.1246 5.95553C10.0465 6.03368 10.0026 6.13966 10.0026 6.25016V7.0835C10.0026 7.194 10.0465 7.29998 10.1246 7.37812C10.2028 7.45626 10.3088 7.50016 10.4193 7.50016ZM10.4193 10.0002C10.5298 10.0002 10.6358 9.95626 10.7139 9.87812C10.792 9.79998 10.8359 9.694 10.8359 9.5835V8.75016C10.8359 8.63966 10.792 8.53367 10.7139 8.45553C10.6358 8.37739 10.5298 8.3335 10.4193 8.3335C10.3088 8.3335 10.2028 8.37739 10.1246 8.45553C10.0465 8.53367 10.0026 8.63966 10.0026 8.75016V9.5835C10.0026 9.694 10.0465 9.79998 10.1246 9.87812C10.2028 9.95626 10.3088 10.0002 10.4193 10.0002ZM10.4193 12.5002C10.5298 12.5002 10.6358 12.4563 10.7139 12.3781C10.792 12.3 10.8359 12.194 10.8359 12.0835V11.2502C10.8359 11.1397 10.792 11.0337 10.7139 10.9555C10.6358 10.8774 10.5298 10.8335 10.4193 10.8335C10.3088 10.8335 10.2028 10.8774 10.1246 10.9555C10.0465 11.0337 10.0026 11.1397 10.0026 11.2502V12.0835C10.0026 12.194 10.0465 12.3 10.1246 12.3781C10.2028 12.4563 10.3088 12.5002 10.4193 12.5002ZM10.4193 15.0002C10.5298 15.0002 10.6358 14.9563 10.7139 14.8781C10.792 14.8 10.8359 14.694 10.8359 14.5835V13.7502C10.8359 13.6397 10.792 13.5337 10.7139 13.4555C10.6358 13.3774 10.5298 13.3335 10.4193 13.3335C10.3088 13.3335 10.2028 13.3774 10.1246 13.4555C10.0465 13.5337 10.0026 13.6397 10.0026 13.7502V14.5835C10.0026 14.694 10.0465 14.8 10.1246 14.8781C10.2028 14.9563 10.3088 15.0002 10.4193 15.0002ZM10.4193 17.5002C10.5298 17.5002 10.6358 17.4563 10.7139 17.3781C10.792 17.3 10.8359 17.194 10.8359 17.0835V16.2502C10.8359 16.1397 10.792 16.0337 10.7139 15.9555C10.6358 15.8774 10.5298 15.8335 10.4193 15.8335C10.3088 15.8335 10.2028 15.8774 10.1246 15.9555C10.0465 16.0337 10.0026 16.1397 10.0026 16.2502V17.0835C10.0026 17.194 10.0465 17.3 10.1246 17.3781C10.2028 17.4563 10.3088 17.5002 10.4193 17.5002ZM12.0901 17.5002H15.4234C15.976 17.5002 16.5059 17.2807 16.8966 16.89C17.2873 16.4993 17.5068 15.9694 17.5068 15.4168V5.41683C17.5068 4.8643 17.2873 4.33439 16.8966 3.94369C16.5059 3.55299 15.976 3.3335 15.4234 3.3335H12.0901C11.9796 3.3335 11.8736 3.37739 11.7955 3.45554C11.7173 3.53368 11.6734 3.63966 11.6734 3.75016V10.3818C11.6823 10.2818 11.7269 10.1882 11.7993 10.1185L13.4618 8.45183C13.54 8.3737 13.6461 8.32985 13.7566 8.32993C13.8672 8.33001 13.9732 8.37401 14.0514 8.45225C14.1295 8.53048 14.1733 8.63656 14.1733 8.74712C14.1732 8.85769 14.1292 8.9637 14.0509 9.04183L13.0943 10.0002H15.4501C15.5014 10.0002 15.5522 10.0103 15.5995 10.0299C15.6469 10.0496 15.6899 10.0784 15.7262 10.1147C15.7624 10.151 15.7911 10.1941 15.8107 10.2415C15.8302 10.2889 15.8402 10.3397 15.8401 10.391V10.4168C15.8401 10.5273 15.7962 10.6333 15.7181 10.7115C15.6399 10.7896 15.5339 10.8335 15.4234 10.8335H13.0859L14.0443 11.791C14.083 11.8297 14.1136 11.8757 14.1345 11.9263C14.1555 11.9769 14.1662 12.0311 14.1662 12.0859C14.1661 12.1406 14.1553 12.1948 14.1343 12.2454C14.1133 12.296 14.0826 12.3419 14.0439 12.3806C14.0051 12.4193 13.9591 12.4499 13.9085 12.4709C13.8579 12.4918 13.8037 12.5025 13.749 12.5025C13.6942 12.5024 13.64 12.4916 13.5895 12.4706C13.5389 12.4496 13.493 12.4189 13.4543 12.3802L11.7943 10.7202C11.7225 10.6513 11.6783 10.5585 11.6701 10.4593V17.0835C11.6701 17.1385 11.681 17.193 11.7021 17.2437C11.7233 17.2945 11.7543 17.3406 11.7933 17.3793C11.8324 17.418 11.8787 17.4487 11.9296 17.4694C11.9806 17.4902 12.0351 17.5006 12.0901 17.5002ZM8.7526 17.5002H5.41927C4.86674 17.5002 4.33683 17.2807 3.94613 16.89C3.55543 16.4993 3.33594 15.9694 3.33594 15.4168V5.41683C3.33594 4.8643 3.55543 4.33439 3.94613 3.94369C4.33683 3.55299 4.86674 3.3335 5.41927 3.3335H8.7526C8.86311 3.3335 8.96909 3.37739 9.04723 3.45554C9.12537 3.53368 9.16927 3.63966 9.16927 3.75016V10.3818C9.16044 10.2818 9.11576 10.1882 9.04344 10.1185L7.37677 8.45183C7.29853 8.37359 7.19242 8.32964 7.08177 8.32964C6.97112 8.32964 6.86501 8.37359 6.78677 8.45183C6.70853 8.53007 6.66458 8.63618 6.66458 8.74683C6.66458 8.85748 6.70853 8.96359 6.78677 9.04183L7.7476 10.0002H5.3926C5.34117 10.0004 5.29028 10.0107 5.24285 10.0306C5.19541 10.0505 5.15236 10.0795 5.11614 10.1161C5.07993 10.1526 5.05126 10.1959 5.03178 10.2435C5.0123 10.2911 5.00238 10.3421 5.0026 10.3935V10.4168C5.0026 10.5273 5.0465 10.6333 5.12464 10.7115C5.20278 10.7896 5.30876 10.8335 5.41927 10.8335H7.7526L6.79427 11.791C6.71837 11.8696 6.67637 11.9748 6.67732 12.0841C6.67827 12.1933 6.72209 12.2978 6.79935 12.3751C6.8766 12.4523 6.9811 12.4962 7.09035 12.4971C7.1996 12.4981 7.30485 12.4561 7.38344 12.3802L9.04427 10.7202C9.11539 10.6514 9.1597 10.5595 9.16927 10.461V17.0835C9.16927 17.194 9.12537 17.3 9.04723 17.3781C8.96909 17.4563 8.86311 17.5002 8.7526 17.5002Z" fill="white"/>
</svg>
