<svg width="20" height="20" viewBox="0 0 20 20" fill="none" xmlns="http://www.w3.org/2000/svg">
<path fill-rule="evenodd" clip-rule="evenodd" d="M10.8333 15.8333H12.5C12.721 15.8333 12.933 15.9211 13.0893 16.0774C13.2455 16.2337 13.3333 16.4457 13.3333 16.6667C13.3333 16.8877 13.2455 17.0996 13.0893 17.2559C12.933 17.4122 12.721 17.5 12.5 17.5H7.5C7.27899 17.5 7.06702 17.4122 6.91074 17.2559C6.75446 17.0996 6.66667 16.8877 6.66667 16.6667C6.66667 16.4457 6.75446 16.2337 6.91074 16.0774C7.06702 15.9211 7.27899 15.8333 7.5 15.8333H9.16667V4.16667H4.16667V5.83333C4.16667 6.05435 4.07887 6.26631 3.92259 6.42259C3.76631 6.57887 3.55435 6.66667 3.33333 6.66667C3.11232 6.66667 2.90036 6.57887 2.74408 6.42259C2.5878 6.26631 2.5 6.05435 2.5 5.83333V3.33333C2.5 3.11232 2.5878 2.90036 2.74408 2.74408C2.90036 2.5878 3.11232 2.5 3.33333 2.5H16.6667C16.8877 2.5 17.0996 2.5878 17.2559 2.74408C17.4122 2.90036 17.5 3.11232 17.5 3.33333V5.83333C17.5 6.05435 17.4122 6.26631 17.2559 6.42259C17.0996 6.57887 16.8877 6.66667 16.6667 6.66667C16.4457 6.66667 16.2337 6.57887 16.0774 6.42259C15.9211 6.26631 15.8333 6.05435 15.8333 5.83333V4.16667H10.8333V15.8333Z" fill="white"/>
</svg>
