<svg width="20" height="20" viewBox="0 0 20 20" fill="none" xmlns="http://www.w3.org/2000/svg">
<path d="M17.8098 2.1454C17.7496 2.09226 17.6791 2.05217 17.6027 2.02768C17.5262 2.00318 17.4456 1.99481 17.3657 2.0031L7.08002 3.14595C6.7905 3.17799 6.57142 3.42268 6.57146 3.71394V13.8974C6.05356 13.5875 5.46071 13.4252 4.85717 13.4283C3.28173 13.4283 2 14.4534 2 15.714C2 16.9746 3.28173 17.9997 4.85714 17.9997C6.43254 17.9997 7.71427 16.9751 7.71427 15.714V7.08543L16.8572 6.06713V12.7529C16.3391 12.4435 15.7462 12.2819 15.1429 12.2854C13.5674 12.2854 12.2857 13.3106 12.2857 14.5711C12.2857 15.8317 13.5675 16.8569 15.1429 16.8569C16.7183 16.8569 18 15.8323 18 14.5711V2.57112C18 2.4086 17.9308 2.25378 17.8098 2.1454Z" fill="white"/>
</svg>
