<svg width="20" height="20" viewBox="0 0 20 20" fill="none" xmlns="http://www.w3.org/2000/svg">
<path d="M13.2403 9.50309L8.55277 6.5734C8.46407 6.51798 8.36216 6.48731 8.25761 6.48458C8.15305 6.48184 8.04967 6.50713 7.95819 6.55783C7.86671 6.60853 7.79047 6.68279 7.73738 6.7729C7.68428 6.86301 7.65627 6.96569 7.65625 7.07028V12.9297C7.65625 13.0342 7.68425 13.1369 7.73733 13.227C7.79042 13.3172 7.86666 13.3914 7.95814 13.4421C8.04962 13.4928 8.15301 13.5181 8.25757 13.5154C8.36212 13.5126 8.46404 13.482 8.55273 13.4265L13.2402 10.4968C13.3245 10.4442 13.394 10.3709 13.4422 10.284C13.4904 10.1971 13.5156 10.0994 13.5156 9.99997C13.5157 9.9006 13.4904 9.80285 13.4422 9.71593C13.394 9.629 13.3245 9.55576 13.2403 9.50309ZM8.82816 11.8725V8.12742L11.8242 9.99996L8.82816 11.8725Z" fill="white"/>
<path d="M17.0703 2.38281H2.92969C1.31426 2.38281 0 3.69707 0 5.3125V14.6875C0 16.3029 1.31426 17.6172 2.92969 17.6172H17.0703C18.6857 17.6172 20 16.3029 20 14.6875V5.3125C20 3.69707 18.6857 2.38281 17.0703 2.38281ZM18.8281 14.6875C18.8281 15.6568 18.0396 16.4453 17.0703 16.4453H2.92969C1.96043 16.4453 1.17188 15.6568 1.17188 14.6875V5.3125C1.17188 4.34324 1.96043 3.55469 2.92969 3.55469H17.0703C18.0396 3.55469 18.8281 4.34324 18.8281 5.3125V14.6875Z" fill="white"/>
</svg>
