<svg width="20" height="20" viewBox="0 0 20 20" fill="none" xmlns="http://www.w3.org/2000/svg">
<g clip-path="url(#clip0_23_18282)">
<path d="M18.7301 2.22217H1.26986C0.56859 2.22217 0 2.79072 0 3.49199V16.5079C0 17.2091 0.56859 17.7777 1.26986 17.7777H18.7301C19.4314 17.7777 20 17.2091 20 16.5078V3.49199C20 2.79072 19.4314 2.22217 18.7301 2.22217ZM18.7301 3.49199V12.7272L16.2276 10.452C15.8514 10.1101 15.273 10.1237 14.9136 10.4834L12.3809 13.0158L7.38699 7.0507C7.0095 6.5999 6.31807 6.59547 5.93492 7.04086L1.26986 12.4625V3.49199H18.7301ZM13.3333 6.82532C13.3333 5.86087 14.1149 5.07928 15.0793 5.07928C16.0438 5.07928 16.8254 5.86087 16.8254 6.82532C16.8254 7.78977 16.0438 8.57132 15.0793 8.57132C14.1149 8.57136 13.3333 7.78977 13.3333 6.82532Z" fill="white"/>
</g>
<defs>
<clipPath id="clip0_23_18282">
<rect width="20" height="20" fill="white"/>
</clipPath>
</defs>
</svg>
