<svg width="20" height="20" viewBox="0 0 20 20" fill="none" xmlns="http://www.w3.org/2000/svg">
<path fill-rule="evenodd" clip-rule="evenodd" d="M18.9557 8.33317C18.9557 7.72539 18.7143 7.14249 18.2845 6.71272C17.8547 6.28295 17.2719 6.04151 16.6641 6.04151H8.33073C7.72294 6.04151 7.14005 6.28295 6.71028 6.71272C6.28051 7.14249 6.03906 7.72539 6.03906 8.33317V16.6665C6.03906 17.2743 6.28051 17.8572 6.71028 18.287C7.14005 18.7167 7.72294 18.9582 8.33073 18.9582H16.6641C17.2719 18.9582 17.8547 18.7167 18.2845 18.287C18.7143 17.8572 18.9557 17.2743 18.9557 16.6665V8.33317ZM17.7057 8.33317V16.6665C17.7057 17.2415 17.2391 17.7082 16.6641 17.7082H8.33073C7.75573 17.7082 7.28906 17.2415 7.28906 16.6665V8.33317C7.28906 7.75817 7.75573 7.29151 8.33073 7.29151H16.6641C17.2391 7.29151 17.7057 7.75817 17.7057 8.33317ZM5.20573 11.509L2.8149 13.8998C2.98073 13.9382 3.15323 13.9582 3.33073 13.9582H5.20573V11.509ZM5.46656 7.08151L1.03906 11.509V11.6665C1.03906 12.2865 1.2849 12.849 1.6849 13.2615L5.20573 9.74067V8.33317C5.20573 7.88817 5.29906 7.46401 5.46656 7.08151ZM9.73823 1.04151L1.03906 9.74067V7.34234L7.3399 1.04151H9.73823ZM5.57156 1.04151H3.33073C2.72294 1.04151 2.14005 1.28295 1.71028 1.71272C1.28051 2.14249 1.03906 2.72539 1.03906 3.33317V5.57401L5.57156 1.04151ZM7.07906 5.46901C7.47377 5.29648 7.89996 5.20766 8.33073 5.20817H9.73823L13.2591 1.68734C12.832 1.27229 12.2596 1.04054 11.6641 1.04151H11.5066L7.07906 5.46901ZM11.5066 5.20817H13.9557V3.33317C13.9557 3.15567 13.9357 2.98317 13.8974 2.81734L11.5066 5.20817Z" fill="white"/>
</svg>
