<svg width="20" height="20" viewBox="0 0 20 20" fill="none" xmlns="http://www.w3.org/2000/svg">
<g clip-path="url(#clip0_23_18294)">
<path d="M13.4375 5.3125H6.5625C5.87214 5.3125 5.3125 5.87214 5.3125 6.5625V13.4375C5.3125 14.1279 5.87214 14.6875 6.5625 14.6875H13.4375C14.1279 14.6875 14.6875 14.1279 14.6875 13.4375V6.5625C14.6875 5.87214 14.1279 5.3125 13.4375 5.3125Z" fill="white"/>
<path d="M0.9375 5.625C1.10326 5.625 1.26223 5.55915 1.37944 5.44194C1.49665 5.32473 1.5625 5.16576 1.5625 5V2.44625L3.93313 4.81687C4.051 4.93072 4.20888 4.99372 4.37275 4.9923C4.53662 4.99087 4.69338 4.92514 4.80926 4.80926C4.92514 4.69338 4.99087 4.53662 4.9923 4.37275C4.99372 4.20888 4.93072 4.051 4.81687 3.93313L2.44625 1.5625H5C5.16576 1.5625 5.32473 1.49665 5.44194 1.37944C5.55915 1.26223 5.625 1.10326 5.625 0.9375C5.625 0.77174 5.55915 0.612769 5.44194 0.495558C5.32473 0.378348 5.16576 0.3125 5 0.3125H0.9375C0.77174 0.3125 0.612769 0.378348 0.495558 0.495558C0.378348 0.612769 0.3125 0.77174 0.3125 0.9375V5C0.3125 5.16576 0.378348 5.32473 0.495558 5.44194C0.612769 5.55915 0.77174 5.625 0.9375 5.625ZM19.0625 0.3125H15C14.8342 0.3125 14.6753 0.378348 14.5581 0.495558C14.4408 0.612769 14.375 0.77174 14.375 0.9375C14.375 1.10326 14.4408 1.26223 14.5581 1.37944C14.6753 1.49665 14.8342 1.5625 15 1.5625H17.5538L15.1831 3.93313C15.1234 3.99078 15.0758 4.05974 15.0431 4.136C15.0103 4.21225 14.9931 4.29426 14.9923 4.37725C14.9916 4.46024 15.0074 4.54254 15.0389 4.61935C15.0703 4.69616 15.1167 4.76594 15.1754 4.82462C15.2341 4.88331 15.3038 4.92971 15.3807 4.96114C15.4575 4.99256 15.5398 5.00838 15.6228 5.00766C15.7057 5.00694 15.7878 4.98969 15.864 4.95694C15.9403 4.92418 16.0092 4.87657 16.0669 4.81687L18.4375 2.44625V5C18.4375 5.16576 18.5033 5.32473 18.6206 5.44194C18.7378 5.55915 18.8967 5.625 19.0625 5.625C19.2283 5.625 19.3872 5.55915 19.5044 5.44194C19.6217 5.32473 19.6875 5.16576 19.6875 5V0.9375C19.6875 0.77174 19.6217 0.612769 19.5044 0.495558C19.3872 0.378348 19.2283 0.3125 19.0625 0.3125ZM5 18.4375H2.44625L4.81687 16.0669C4.93072 15.949 4.99372 15.7911 4.9923 15.6272C4.99087 15.4634 4.92514 15.3066 4.80926 15.1907C4.69338 15.0749 4.53662 15.0091 4.37275 15.0077C4.20888 15.0063 4.051 15.0693 3.93313 15.1831L1.5625 17.5538V15C1.5625 14.8342 1.49665 14.6753 1.37944 14.5581C1.26223 14.4408 1.10326 14.375 0.9375 14.375C0.77174 14.375 0.612769 14.4408 0.495558 14.5581C0.378348 14.6753 0.3125 14.8342 0.3125 15V19.0625C0.3125 19.2283 0.378348 19.3872 0.495558 19.5044C0.612769 19.6217 0.77174 19.6875 0.9375 19.6875H5C5.16576 19.6875 5.32473 19.6217 5.44194 19.5044C5.55915 19.3872 5.625 19.2283 5.625 19.0625C5.625 18.8967 5.55915 18.7378 5.44194 18.6206C5.32473 18.5033 5.16576 18.4375 5 18.4375ZM19.0625 14.375C18.8967 14.375 18.7378 14.4408 18.6206 14.5581C18.5033 14.6753 18.4375 14.8342 18.4375 15V17.5538L16.0669 15.1831C15.949 15.0693 15.7911 15.0063 15.6272 15.0077C15.4634 15.0091 15.3066 15.0749 15.1907 15.1907C15.0749 15.3066 15.0091 15.4634 15.0077 15.6272C15.0063 15.7911 15.0693 15.949 15.1831 16.0669L17.5538 18.4375H15C14.8342 18.4375 14.6753 18.5033 14.5581 18.6206C14.4408 18.7378 14.375 18.8967 14.375 19.0625C14.375 19.2283 14.4408 19.3872 14.5581 19.5044C14.6753 19.6217 14.8342 19.6875 15 19.6875H19.0625C19.2283 19.6875 19.3872 19.6217 19.5044 19.5044C19.6217 19.3872 19.6875 19.2283 19.6875 19.0625V15C19.6875 14.8342 19.6217 14.6753 19.5044 14.5581C19.3872 14.4408 19.2283 14.375 19.0625 14.375Z" fill="white"/>
</g>
<defs>
<clipPath id="clip0_23_18294">
<rect width="20" height="20" fill="white"/>
</clipPath>
</defs>
</svg>
