<svg width="18" height="18" viewBox="0 0 18 18" fill="none" xmlns="http://www.w3.org/2000/svg">
<g clip-path="url(#clip0_23_18377)">
<mask id="mask0_23_18377" style="mask-type:luminance" maskUnits="userSpaceOnUse" x="0" y="0" width="18" height="18">
<path d="M18 0H0V18H18V0Z" fill="white"/>
</mask>
<g mask="url(#mask0_23_18377)">
<path d="M4.8225 7.45672L12.6487 2.76097C13.5412 2.22547 13.9875 1.95772 14.355 1.99222C14.5133 2.00698 14.6666 2.05511 14.805 2.13345C14.9433 2.21179 15.0634 2.31856 15.1575 2.44672C15.375 2.74372 15.375 3.26422 15.375 4.30447V13.6952C15.375 14.7362 15.375 15.256 15.1575 15.5537C15.0634 15.6817 14.9432 15.7884 14.8049 15.8666C14.6665 15.9448 14.5132 15.9928 14.355 16.0075C13.9875 16.042 13.5412 15.7742 12.6487 15.2387L4.8225 10.543C3.97425 10.0337 3.54975 9.77947 3.40575 9.45022C3.34359 9.30808 3.3115 9.15461 3.3115 8.99947C3.3115 8.84433 3.34359 8.69086 3.40575 8.54872C3.54975 8.21947 3.97425 7.96522 4.8225 7.45597V7.45672Z" fill="white"/>
<path d="M4.875 3.0398C4.875 2.45855 4.371 1.98755 3.75 1.98755C3.129 1.98755 2.625 2.45855 2.625 3.0398V14.961C2.625 15.5415 3.129 16.0125 3.75 16.0125C4.371 16.0125 4.875 15.5415 4.875 14.9603V3.0398Z" fill="white"/>
</g>
</g>
<defs>
<clipPath id="clip0_23_18377">
<rect width="18" height="18" fill="white" transform="matrix(-1 0 0 1 18 0)"/>
</clipPath>
</defs>
</svg>
