<svg width="18" height="18" viewBox="0 0 18 18" fill="none" xmlns="http://www.w3.org/2000/svg">
<g clip-path="url(#clip0_23_18369)">
<mask id="mask0_23_18369" style="mask-type:luminance" maskUnits="userSpaceOnUse" x="0" y="0" width="18" height="18">
<path d="M0 0H18V18H0V0Z" fill="white"/>
</mask>
<g mask="url(#mask0_23_18369)">
<path d="M13.1775 7.45672L5.35125 2.76097C4.45875 2.22547 4.0125 1.95772 3.645 1.99222C3.48672 2.00698 3.33336 2.05511 3.19504 2.13345C3.05671 2.21179 2.93656 2.31856 2.8425 2.44672C2.625 2.74372 2.625 3.26422 2.625 4.30447V13.6952C2.625 14.7362 2.625 15.256 2.8425 15.5537C2.93663 15.6817 3.05682 15.7884 3.19514 15.8666C3.33346 15.9448 3.48678 15.9928 3.645 16.0075C4.0125 16.042 4.45875 15.7742 5.35125 15.2387L13.1775 10.543C14.0258 10.0337 14.4502 9.77947 14.5942 9.45022C14.6564 9.30808 14.6885 9.15461 14.6885 8.99947C14.6885 8.84433 14.6564 8.69086 14.5942 8.54872C14.4502 8.21947 14.0258 7.96522 13.1775 7.45597V7.45672Z" fill="white"/>
<path d="M13.125 3.0398C13.125 2.45855 13.629 1.98755 14.25 1.98755C14.871 1.98755 15.375 2.45855 15.375 3.0398V14.961C15.375 15.5415 14.871 16.0125 14.25 16.0125C13.629 16.0125 13.125 15.5415 13.125 14.9603V3.0398Z" fill="white"/>
</g>
</g>
<defs>
<clipPath id="clip0_23_18369">
<rect width="18" height="18" fill="white"/>
</clipPath>
</defs>
</svg>
