<svg width="16" height="16" viewBox="0 0 16 16" fill="none" xmlns="http://www.w3.org/2000/svg">
<g clip-path="url(#clip0_23_18417)">
<path d="M15.996 2.78186V5.4243C15.996 5.62453 15.9165 5.81657 15.7749 5.95815C15.6333 6.09974 15.4413 6.17928 15.241 6.17928C15.0408 6.17928 14.8488 6.09974 14.7072 5.95815C14.5656 5.81657 14.486 5.62453 14.486 5.4243V2.78186C14.486 2.44288 14.4468 2.40437 14.1085 2.40437H11.4661C11.2659 2.40437 11.0738 2.32483 10.9323 2.18324C10.7907 2.04166 10.7111 1.84962 10.7111 1.64939C10.7111 1.44916 10.7907 1.25712 10.9323 1.11554C11.0738 0.97395 11.2659 0.894408 11.4661 0.894408H14.1085C14.3616 0.873877 14.6161 0.908611 14.8544 0.996204C15.0928 1.0838 15.3092 1.22216 15.4887 1.40169C15.6683 1.58123 15.8066 1.79765 15.8942 2.03597C15.9818 2.27428 16.0165 2.52879 15.996 2.78186ZM5.42625 0.894408H2.78382C2.53074 0.873877 2.27623 0.908611 2.03792 0.996204C1.7996 1.0838 1.58318 1.22216 1.40364 1.40169C1.22411 1.58123 1.08575 1.79765 0.998158 2.03597C0.910564 2.27428 0.87583 2.52879 0.896361 2.78186V5.4243C0.896361 5.62453 0.975903 5.81657 1.11749 5.95815C1.25908 6.09974 1.45111 6.17928 1.65134 6.17928C1.85158 6.17928 2.04361 6.09974 2.1852 5.95815C2.32678 5.81657 2.40632 5.62453 2.40632 5.4243V2.78186C2.40632 2.44288 2.44558 2.40437 2.78382 2.40437H5.42625C5.62649 2.40437 5.81852 2.32483 5.96011 2.18324C6.10169 2.04166 6.18123 1.84962 6.18123 1.64939C6.18123 1.44916 6.10169 1.25712 5.96011 1.11554C5.81852 0.97395 5.62649 0.894408 5.42625 0.894408ZM5.42625 14.4841H2.78382C2.44558 14.4841 2.40632 14.4456 2.40632 14.1066V11.4642C2.40632 11.2639 2.32678 11.0719 2.1852 10.9303C2.04361 10.7887 1.85158 10.7092 1.65134 10.7092C1.45111 10.7092 1.25908 10.7887 1.11749 10.9303C0.975903 11.0719 0.896361 11.2639 0.896361 11.4642V14.1066C0.87583 14.3597 0.910564 14.6142 0.998158 14.8525C1.08575 15.0908 1.22411 15.3072 1.40364 15.4868C1.58318 15.6663 1.7996 15.8047 2.03792 15.8923C2.27623 15.9798 2.53074 16.0146 2.78382 15.994H5.42625C5.62649 15.994 5.81852 15.9145 5.96011 15.7729C6.10169 15.6313 6.18123 15.4393 6.18123 15.2391C6.18123 15.0388 6.10169 14.8468 5.96011 14.7052C5.81852 14.5636 5.62649 14.4841 5.42625 14.4841ZM15.241 10.7092C15.0408 10.7092 14.8488 10.7887 14.7072 10.9303C14.5656 11.0719 14.486 11.2639 14.486 11.4642V14.1066C14.486 14.4456 14.4468 14.4841 14.1085 14.4841H11.4661C11.2659 14.4841 11.0738 14.5636 10.9323 14.7052C10.7907 14.8468 10.7111 15.0388 10.7111 15.2391C10.7111 15.4393 10.7907 15.6313 10.9323 15.7729C11.0738 15.9145 11.2659 15.994 11.4661 15.994H14.1085C14.3616 16.0146 14.6161 15.9798 14.8544 15.8923C15.0928 15.8047 15.3092 15.6663 15.4887 15.4868C15.6683 15.3072 15.8066 15.0908 15.8942 14.8525C15.9818 14.6142 16.0165 14.3597 15.996 14.1066V11.4642C15.996 11.2639 15.9165 11.0719 15.7749 10.9303C15.6333 10.7887 15.4413 10.7092 15.241 10.7092Z" fill="white"/>
</g>
<defs>
<clipPath id="clip0_23_18417">
<rect width="16" height="16" fill="white"/>
</clipPath>
</defs>
</svg>
