<svg width="16" height="16" viewBox="0 0 16 16" fill="none" xmlns="http://www.w3.org/2000/svg">
<path fill-rule="evenodd" clip-rule="evenodd" d="M5.91871 6.0563C5.40083 6.73141 4.58588 7.16667 3.66927 7.16667C2.10446 7.16667 0.835938 5.89814 0.835938 4.33333C0.835938 2.76853 2.10446 1.5 3.66927 1.5C5.23408 1.5 6.50261 2.76853 6.50261 4.33333C6.50261 4.61869 6.46042 4.8942 6.38194 5.15396L9.33481 7.36363L14.3699 3.59953C14.5911 3.43419 14.9044 3.47945 15.0698 3.70062C15.2351 3.9218 15.1899 4.23513 14.9687 4.40047L10.1695 7.98821L14.9689 11.5797C15.19 11.7451 15.2351 12.0585 15.0696 12.2796C14.9042 12.5007 14.5908 12.5458 14.3698 12.3803L9.33451 8.61239L6.37536 10.8245C6.45806 11.0906 6.50261 11.3734 6.50261 11.6667C6.50261 13.2315 5.23408 14.5 3.66927 14.5C2.10446 14.5 0.835938 13.2315 0.835938 11.6667C0.835938 10.1019 2.10446 8.83333 3.66927 8.83333C4.57831 8.83333 5.38736 9.26143 5.90582 9.92702L8.49985 7.98781L5.91871 6.0563ZM1.83594 4.33333C1.83594 3.32081 2.65675 2.5 3.66927 2.5C4.68179 2.5 5.5026 3.32081 5.5026 4.33333C5.5026 4.57575 5.45555 4.80718 5.37009 5.01899L5.36899 5.02045C5.32654 5.07717 5.29796 5.13997 5.28265 5.20479C4.97259 5.77761 4.36636 6.16667 3.66927 6.16667C2.65675 6.16667 1.83594 5.34586 1.83594 4.33333ZM1.83594 11.6667C1.83594 10.6541 2.65675 9.83333 3.66927 9.83333C4.38172 9.83333 4.99925 10.2397 5.3027 10.8333C5.31234 10.8583 5.3241 10.8827 5.338 10.9063C5.44371 11.138 5.5026 11.3954 5.5026 11.6667C5.5026 12.6792 4.68179 13.5 3.66927 13.5C2.65675 13.5 1.83594 12.6792 1.83594 11.6667Z" fill="white"/>
</svg>
