<svg width="16" height="16" viewBox="0 0 16 16" fill="none" xmlns="http://www.w3.org/2000/svg">
<path d="M5.79797 5.13294L7.3313 3.59961V9.99961C7.3313 10.3996 7.59797 10.6663 7.99797 10.6663C8.39797 10.6663 8.66463 10.3996 8.66463 9.99961V3.59961L10.198 5.13294C10.4646 5.39961 10.8646 5.39961 11.1313 5.13294C11.398 4.86628 11.398 4.46628 11.1313 4.19961L8.46463 1.53294C8.39797 1.46628 8.3313 1.39961 8.26463 1.39961C8.1313 1.33294 7.9313 1.33294 7.7313 1.39961C7.66463 1.39961 7.59797 1.46628 7.5313 1.53294L4.86463 4.19961C4.59797 4.46628 4.59797 4.86628 4.86463 5.13294C5.1313 5.39961 5.5313 5.39961 5.79797 5.13294ZM13.998 9.33294C13.598 9.33294 13.3313 9.59961 13.3313 9.99961V12.6663C13.3313 13.0663 13.0646 13.3329 12.6646 13.3329H3.3313C2.9313 13.3329 2.66463 13.0663 2.66463 12.6663V9.99961C2.66463 9.59961 2.39797 9.33294 1.99797 9.33294C1.59797 9.33294 1.3313 9.59961 1.3313 9.99961V12.6663C1.3313 13.7996 2.19797 14.6663 3.3313 14.6663H12.6646C13.798 14.6663 14.6646 13.7996 14.6646 12.6663V9.99961C14.6646 9.59961 14.398 9.33294 13.998 9.33294Z" fill="black"/>
</svg>
