<svg width="16" height="16" viewBox="0 0 16 16" fill="none" xmlns="http://www.w3.org/2000/svg">
<path d="M13.2422 15H5.27344C4.30406 15 3.51562 14.2116 3.51562 13.2422V5.27344C3.51562 4.30406 4.30406 3.51562 5.27344 3.51562H13.2422C14.2116 3.51562 15 4.30406 15 5.27344V13.2422C15 14.2116 14.2116 15 13.2422 15ZM5.27344 4.6875C4.95035 4.6875 4.6875 4.95035 4.6875 5.27344V13.2422C4.6875 13.5653 4.95035 13.8281 5.27344 13.8281H13.2422C13.5653 13.8281 13.8281 13.5653 13.8281 13.2422V5.27344C13.8281 4.95035 13.5653 4.6875 13.2422 4.6875H5.27344ZM2.34375 10.3125H1.75781C1.43473 10.3125 1.17187 10.0496 1.17187 9.72656V1.75781C1.17187 1.43473 1.43473 1.17187 1.75781 1.17187H9.72656C10.0496 1.17187 10.3125 1.43473 10.3125 1.75781V2.31445H11.4844V1.75781C11.4844 0.788437 10.6959 0 9.72656 0H1.75781C0.788437 0 0 0.788437 0 1.75781V9.72656C0 10.6959 0.788437 11.4844 1.75781 11.4844H2.34375V10.3125Z" fill="black"/>
</svg>
