<svg width="16" height="16" viewBox="0 0 16 16" fill="none" xmlns="http://www.w3.org/2000/svg">
<path d="M3.17325 12.5397H3.24659L5.19992 12.3597C5.47325 12.3331 5.72659 12.2131 5.91992 12.0197L13.2933 4.64641C13.6399 4.29974 13.8333 3.83974 13.8333 3.35307C13.8333 2.86641 13.6399 2.40641 13.2933 2.05974L12.8199 1.58641C12.1266 0.893073 10.9199 0.893073 10.2266 1.58641L9.28659 2.52641L2.85992 8.95307C2.66659 9.14641 2.54659 9.39974 2.52659 9.67307L2.34659 11.6264C2.32659 11.8731 2.41325 12.1131 2.58659 12.2931C2.74659 12.4531 2.95325 12.5397 3.17325 12.5397ZM11.5266 2.04641C11.7399 2.04641 11.9533 2.12641 12.1133 2.29307L12.5866 2.76641C12.6645 2.84297 12.7263 2.93428 12.7686 3.035C12.8108 3.13573 12.8325 3.24385 12.8325 3.35307C12.8325 3.46229 12.8108 3.57042 12.7686 3.67114C12.7263 3.77187 12.6645 3.86317 12.5866 3.93974L11.9999 4.52641L10.3533 2.87974L10.9399 2.29307C11.0999 2.13307 11.3133 2.04641 11.5266 2.04641ZM3.51992 9.76641C3.51992 9.72641 3.53992 9.69307 3.56659 9.66641L9.63992 3.58641L11.2866 5.23307L5.21325 11.3064C5.21325 11.3064 5.14659 11.3531 5.11325 11.3531L3.35992 11.5131L3.51992 9.75974V9.76641ZM15.1666 14.6664C15.1666 14.9397 14.9399 15.1664 14.6666 15.1664H1.33325C1.05992 15.1664 0.833252 14.9397 0.833252 14.6664C0.833252 14.3931 1.05992 14.1664 1.33325 14.1664H14.6666C14.9399 14.1664 15.1666 14.3931 15.1666 14.6664Z" fill="black"/>
</svg>
