<svg width="16" height="16" viewBox="0 0 16 16" fill="none" xmlns="http://www.w3.org/2000/svg">
<path d="M10.56 14.8337H5.43998C4.92772 14.8263 4.43715 14.6258 4.06634 14.2723C3.69554 13.9188 3.47184 13.4383 3.43998 12.927L2.83331 3.70033C2.8302 3.63343 2.84038 3.56658 2.86327 3.50364C2.88615 3.44071 2.92129 3.38293 2.96664 3.33366C3.01337 3.28259 3.06994 3.24151 3.13295 3.21286C3.19596 3.18422 3.26411 3.16862 3.33331 3.16699H12.6666C12.7352 3.16684 12.8031 3.18079 12.866 3.20798C12.929 3.23516 12.9856 3.275 13.0325 3.32502C13.0794 3.37504 13.1155 3.43417 13.1386 3.49873C13.1617 3.5633 13.1712 3.63192 13.1666 3.70033L12.5866 12.927C12.5544 13.4429 12.327 13.9271 11.9505 14.2813C11.5741 14.6355 11.0769 14.833 10.56 14.8337ZM3.89331 4.16699L4.40664 12.867C4.4236 13.1293 4.53992 13.3753 4.7319 13.5549C4.92388 13.7345 5.17709 13.8342 5.43998 13.8337H10.56C10.8224 13.8326 11.0747 13.7324 11.2664 13.5532C11.458 13.3739 11.5748 13.1288 11.5933 12.867L12.1333 4.20033L3.89331 4.16699Z" fill="black"/>
<path d="M14 4.16699H2C1.86739 4.16699 1.74021 4.11431 1.64645 4.02055C1.55268 3.92678 1.5 3.7996 1.5 3.66699C1.5 3.53438 1.55268 3.40721 1.64645 3.31344C1.74021 3.21967 1.86739 3.16699 2 3.16699H14C14.1326 3.16699 14.2598 3.21967 14.3536 3.31344C14.4473 3.40721 14.5 3.53438 14.5 3.66699C14.5 3.7996 14.4473 3.92678 14.3536 4.02055C14.2598 4.11431 14.1326 4.16699 14 4.16699Z" fill="black"/>
<path d="M10 4.16699H6C5.86793 4.16527 5.74175 4.11203 5.64836 4.01864C5.55496 3.92524 5.50173 3.79906 5.5 3.66699V2.46699C5.50845 2.12487 5.64813 1.7991 5.89012 1.55711C6.13211 1.31512 6.45788 1.17544 6.8 1.16699H9.2C9.54781 1.17569 9.87845 1.32 10.1213 1.56911C10.3642 1.81822 10.5001 2.1524 10.5 2.50033V3.66699C10.4983 3.79906 10.445 3.92524 10.3516 4.01864C10.2582 4.11203 10.1321 4.16527 10 4.16699ZM6.5 3.16699H9.5V2.50033C9.5 2.42076 9.46839 2.34445 9.41213 2.28819C9.35587 2.23193 9.27957 2.20033 9.2 2.20033H6.8C6.72043 2.20033 6.64413 2.23193 6.58787 2.28819C6.53161 2.34445 6.5 2.42076 6.5 2.50033V3.16699ZM10 12.167C9.86793 12.1653 9.74175 12.112 9.64836 12.0186C9.55496 11.9252 9.50173 11.7991 9.5 11.667V6.33366C9.5 6.20105 9.55268 6.07387 9.64645 5.98011C9.74022 5.88634 9.86739 5.83366 10 5.83366C10.1326 5.83366 10.2598 5.88634 10.3536 5.98011C10.4473 6.07387 10.5 6.20105 10.5 6.33366V11.667C10.4983 11.7991 10.445 11.9252 10.3516 12.0186C10.2582 12.112 10.1321 12.1653 10 12.167ZM6 12.167C5.86793 12.1653 5.74175 12.112 5.64836 12.0186C5.55496 11.9252 5.50173 11.7991 5.5 11.667V6.33366C5.5 6.20105 5.55268 6.07387 5.64645 5.98011C5.74022 5.88634 5.86739 5.83366 6 5.83366C6.13261 5.83366 6.25978 5.88634 6.35355 5.98011C6.44732 6.07387 6.5 6.20105 6.5 6.33366V11.667C6.49827 11.7991 6.44504 11.9252 6.35164 12.0186C6.25825 12.112 6.13207 12.1653 6 12.167ZM8 12.167C7.86793 12.1653 7.74175 12.112 7.64836 12.0186C7.55496 11.9252 7.50173 11.7991 7.5 11.667V6.33366C7.5 6.20105 7.55268 6.07387 7.64645 5.98011C7.74022 5.88634 7.86739 5.83366 8 5.83366C8.13261 5.83366 8.25978 5.88634 8.35355 5.98011C8.44732 6.07387 8.5 6.20105 8.5 6.33366V11.667C8.49827 11.7991 8.44504 11.9252 8.35164 12.0186C8.25825 12.112 8.13207 12.1653 8 12.167Z" fill="black"/>
</svg>
