<svg width="16" height="16" viewBox="0 0 16 16" fill="none" xmlns="http://www.w3.org/2000/svg">
<path d="M9.432 11.6821C9.57443 11.6821 9.71103 11.6261 9.81175 11.5262C9.91246 11.4264 9.96904 11.291 9.96904 11.1498V5.82615C9.96904 5.68495 9.91246 5.54955 9.81175 5.44971C9.71103 5.34987 9.57443 5.29378 9.432 5.29378C9.28957 5.29378 9.15297 5.34987 9.05226 5.44971C8.95155 5.54955 8.89497 5.68495 8.89497 5.82615V11.1498C8.89497 11.291 8.95155 11.4264 9.05226 11.5262C9.15297 11.6261 9.28957 11.6821 9.432 11.6821ZM5.67274 11.6821C5.81517 11.6821 5.95177 11.6261 6.05249 11.5262C6.1532 11.4264 6.20978 11.291 6.20978 11.1498V5.82615C6.20978 5.68495 6.1532 5.54955 6.05249 5.44971C5.95177 5.34987 5.81517 5.29378 5.67274 5.29378C5.53031 5.29378 5.39371 5.34987 5.293 5.44971C5.19229 5.54955 5.13571 5.68495 5.13571 5.82615V11.1498C5.13571 11.291 5.19229 11.4264 5.293 11.5262C5.39371 11.6261 5.53031 11.6821 5.67274 11.6821ZM9.70052 1.30106C9.84295 1.30106 9.97955 1.24497 10.0803 1.14513C10.181 1.04529 10.2376 0.909883 10.2376 0.768692C10.2376 0.6275 10.181 0.492091 10.0803 0.392254C9.97955 0.292416 9.84295 0.236328 9.70052 0.236328H5.40422C5.26179 0.236328 5.1252 0.292416 5.02448 0.392254C4.92377 0.492091 4.86719 0.6275 4.86719 0.768692C4.86719 0.909883 4.92377 1.04529 5.02448 1.14513C5.1252 1.24497 5.26179 1.30106 5.40422 1.30106H9.70052Z" fill="white"/>
<path d="M1.64641 1.8335C1.50398 1.8335 1.36738 1.88958 1.26667 1.98942C1.16596 2.08926 1.10938 2.22467 1.10938 2.36586C1.10938 2.50705 1.16596 2.64246 1.26667 2.7423C1.36738 2.84214 1.50398 2.89822 1.64641 2.89822H2.18345V12.6937C2.18345 13.8969 3.1716 14.8764 4.3853 14.8764H10.7223C11.936 14.8764 12.9242 13.8969 12.9242 12.6937V2.89822H13.4612C13.6037 2.89822 13.7403 2.84214 13.841 2.7423C13.9417 2.64246 13.9983 2.50705 13.9983 2.36586C13.9983 2.22467 13.9417 2.08926 13.841 1.98942C13.7403 1.88958 13.6037 1.8335 13.4612 1.8335H2.72049H1.64641ZM11.8501 2.89822V12.6937C11.8501 12.9902 11.7313 13.2746 11.5198 13.4842C11.3083 13.6939 11.0214 13.8117 10.7223 13.8117H4.3853C4.0862 13.8117 3.79934 13.6939 3.58784 13.4842C3.37634 13.2746 3.25752 12.9902 3.25752 12.6937V2.89822H11.8501Z" fill="white"/>
</svg>
