<svg width="16" height="16" viewBox="0 0 16 16" fill="none" xmlns="http://www.w3.org/2000/svg">
<g clip-path="url(#clip0_23_18405)">
<path d="M8 15.999C7.7928 15.999 7.59409 15.9167 7.44757 15.7702C7.30106 15.6237 7.21875 15.425 7.21875 15.2178V0.780273C7.21875 0.573073 7.30106 0.374359 7.44757 0.227846C7.59409 0.0813335 7.7928 -0.000976562 8 -0.000976562C8.2072 -0.000976562 8.40591 0.0813335 8.55243 0.227846C8.69894 0.374359 8.78125 0.573073 8.78125 0.780273V15.2178C8.78125 15.425 8.69894 15.6237 8.55243 15.7702C8.40591 15.9167 8.2072 15.999 8 15.999Z" fill="white"/>
<path d="M15.2188 8.78027H0.78125C0.57405 8.78027 0.375336 8.69796 0.228823 8.55145C0.08231 8.40494 0 8.20622 0 7.99902C0 7.79182 0.08231 7.59311 0.228823 7.4466C0.375336 7.30008 0.57405 7.21777 0.78125 7.21777H15.2188C15.426 7.21777 15.6247 7.30008 15.7712 7.4466C15.9177 7.59311 16 7.79182 16 7.99902C16 8.20622 15.9177 8.40494 15.7712 8.55145C15.6247 8.69796 15.426 8.78027 15.2188 8.78027Z" fill="white"/>
</g>
<defs>
<clipPath id="clip0_23_18405">
<rect width="16" height="16" fill="white" transform="translate(0 -0.000976562)"/>
</clipPath>
</defs>
</svg>
