<svg width="16" height="16" viewBox="0 0 16 16" fill="none" xmlns="http://www.w3.org/2000/svg">
<path d="M1.33608 7.32913H13.0601L9.53141 3.80196C9.46774 3.74049 9.41695 3.66695 9.38201 3.58565C9.34707 3.50435 9.32868 3.41691 9.32791 3.32843C9.32714 3.23994 9.34401 3.15219 9.37753 3.0703C9.41105 2.9884 9.46055 2.914 9.52315 2.85143C9.58574 2.78886 9.66018 2.73938 9.74211 2.70587C9.82404 2.67237 9.91183 2.65551 10.0003 2.65628C10.0889 2.65704 10.1763 2.67543 10.2577 2.71035C10.339 2.74528 10.4126 2.79604 10.4741 2.85969L15.1407 7.52439C15.2657 7.64935 15.3359 7.81882 15.3359 7.99552C15.3359 8.17222 15.2657 8.34169 15.1407 8.46665L10.4741 13.1314C10.3483 13.2527 10.1799 13.3199 10.0051 13.3184C9.83035 13.3169 9.66314 13.2468 9.53953 13.1232C9.41593 12.9997 9.34582 12.8325 9.3443 12.6578C9.34278 12.4831 9.40997 12.3148 9.53141 12.1891L13.0601 8.66191H7.19808H1.33608C1.15927 8.66191 0.989698 8.5917 0.864674 8.46673C0.73965 8.34175 0.669413 8.17226 0.669413 7.99552C0.669413 7.81878 0.73965 7.64929 0.864674 7.52431C0.989698 7.39934 1.15927 7.32913 1.33608 7.32913Z" fill="white"/>
</svg>
