<svg width="16" height="16" viewBox="0 0 16 16" fill="none" xmlns="http://www.w3.org/2000/svg">
<path d="M14.6639 7.32914H2.93992L6.46859 3.80196C6.53226 3.74049 6.58305 3.66695 6.61799 3.58565C6.65293 3.50435 6.67132 3.41691 6.67209 3.32843C6.67286 3.23994 6.65599 3.15219 6.62247 3.0703C6.58895 2.9884 6.53945 2.914 6.47685 2.85143C6.41426 2.78886 6.33982 2.73938 6.25789 2.70587C6.17596 2.67237 6.08817 2.65551 5.99965 2.65628C5.91113 2.65704 5.82365 2.67543 5.74232 2.71035C5.66098 2.74528 5.58742 2.79604 5.52592 2.85969L0.859253 7.52439C0.734273 7.64935 0.664063 7.81882 0.664062 7.99552C0.664062 8.17222 0.734273 8.34169 0.859253 8.46665L5.52592 13.1314C5.65166 13.2527 5.82006 13.3199 5.99485 13.3184C6.16965 13.3169 6.33686 13.2468 6.46047 13.1232C6.58407 12.9997 6.65418 12.8325 6.6557 12.6578C6.65722 12.4831 6.59003 12.3148 6.46859 12.1891L2.93992 8.66191H14.6639C14.8407 8.66191 15.0103 8.5917 15.1353 8.46673C15.2604 8.34175 15.3306 8.17226 15.3306 7.99552C15.3306 7.81878 15.2604 7.64929 15.1353 7.52431C15.0103 7.39934 14.8407 7.32914 14.6639 7.32914Z" fill="white"/>
</svg>
