<svg width="20" height="20" viewBox="0 0 20 20" fill="none" xmlns="http://www.w3.org/2000/svg">
<path d="M14.1687 13.3335C14.0585 13.333 13.9494 13.3107 13.8478 13.2678C13.7463 13.2249 13.6542 13.1622 13.5771 13.0835C13.4219 12.9273 13.3347 12.7161 13.3347 12.496C13.3347 12.2758 13.4219 12.0646 13.5771 11.9085L16.3521 9.16681H7.9104C6.91584 9.16681 5.96201 9.5619 5.25875 10.2652C4.55549 10.9684 4.1604 11.9223 4.1604 12.9168C4.1604 13.9114 4.55549 14.8652 5.25875 15.5685C5.96201 16.2717 6.91584 16.6668 7.9104 16.6668H10.0021C10.2231 16.6668 10.435 16.7546 10.5913 16.9109C10.7476 17.0672 10.8354 17.2791 10.8354 17.5001C10.8354 17.7212 10.7476 17.9331 10.5913 18.0894C10.435 18.2457 10.2231 18.3335 10.0021 18.3335H7.9104C6.47381 18.3335 5.09606 17.7628 4.08024 16.747C3.06442 15.7312 2.49374 14.3534 2.49374 12.9168C2.49374 11.4802 3.06442 10.1025 4.08024 9.08665C5.09606 8.07083 6.47381 7.50015 7.9104 7.50015H16.3604L13.5854 4.75848C13.4477 4.60004 13.3748 4.39546 13.3814 4.18563C13.388 3.9758 13.4735 3.77618 13.6209 3.62669C13.7683 3.4772 13.9667 3.38884 14.1764 3.37928C14.3861 3.36973 14.5917 3.43968 14.7521 3.57515L18.9771 7.74181C19.0543 7.81968 19.1154 7.91203 19.1569 8.01356C19.1983 8.11509 19.2194 8.22381 19.2187 8.33348C19.2183 8.44374 19.1959 8.5528 19.153 8.65437C19.1101 8.75593 19.0475 8.84797 18.9687 8.92515L14.7521 13.0918C14.5969 13.2458 14.3874 13.3326 14.1687 13.3335Z" fill="white"/>
</svg>
