<svg width="20" height="20" viewBox="0 0 20 20" fill="none" xmlns="http://www.w3.org/2000/svg">
<path d="M5.83126 13.3335C5.94152 13.333 6.05059 13.3107 6.15215 13.2678C6.25371 13.2249 6.34575 13.1622 6.42293 13.0835C6.57814 12.9273 6.66526 12.7161 6.66526 12.496C6.66526 12.2758 6.57814 12.0646 6.42293 11.9085L3.64793 9.16681H12.0896C13.0842 9.16681 14.038 9.5619 14.7412 10.2652C15.4445 10.9684 15.8396 11.9223 15.8396 12.9168C15.8396 13.9114 15.4445 14.8652 14.7412 15.5685C14.038 16.2717 13.0842 16.6668 12.0896 16.6668H9.99793C9.77692 16.6668 9.56495 16.7546 9.40868 16.9109C9.25239 17.0672 9.1646 17.2791 9.1646 17.5001C9.1646 17.7212 9.25239 17.9331 9.40868 18.0894C9.56495 18.2457 9.77692 18.3335 9.99793 18.3335H12.0896C13.5262 18.3335 14.9039 17.7628 15.9198 16.747C16.9356 15.7312 17.5063 14.3534 17.5063 12.9168C17.5063 11.4802 16.9356 10.1025 15.9198 9.08665C14.9039 8.07083 13.5262 7.50015 12.0896 7.50015H3.6396L6.4146 4.75848C6.55233 4.60004 6.62519 4.39546 6.61861 4.18563C6.61203 3.9758 6.52649 3.77618 6.3791 3.62669C6.23171 3.4772 6.03333 3.38884 5.82362 3.37928C5.6139 3.36973 5.4083 3.43968 5.24793 3.57515L1.02293 7.74181C0.945696 7.81968 0.884592 7.91203 0.843121 8.01356C0.801651 8.11509 0.78063 8.22381 0.781264 8.33348C0.781722 8.44374 0.804054 8.5528 0.846968 8.65437C0.889882 8.75593 0.952524 8.84797 1.03126 8.92515L5.24793 13.0918C5.40315 13.2458 5.61265 13.3326 5.83126 13.3335Z" fill="white"/>
</svg>
